<svg width="20" height="20" viewBox="0 0 20 20" fill="none" xmlns="http://www.w3.org/2000/svg">
<g clip-path="url(#clip0_526_991)">
<path d="M10 20C15.5228 20 20 15.5228 20 10C20 4.47715 15.5228 0 10 0C4.47715 0 0 4.47715 0 10C0 15.5228 4.47715 20 10 20Z" fill="#F0F0F0"/>
<path d="M-0.000366211 10.0002C-0.000366211 14.2999 2.71338 17.9652 6.52139 19.3782V0.622192C2.71338 2.03508 -0.000366211 5.70055 -0.000366211 10.0002Z" fill="#6DA544"/>
<path d="M19.9999 10.0002C19.9999 5.70055 17.2862 2.03508 13.4781 0.622192V19.3782C17.2862 17.9652 19.9999 14.2999 19.9999 10.0002Z" fill="#6DA544"/>
</g>
<defs>
<clipPath id="clip0_526_991">
<rect width="20" height="20" fill="white"/>
</clipPath>
</defs>
</svg>
